<?xml version="1.0" encoding="utf-8"?>
<!-- Generator: Adobe Illustrator 23.0.1, SVG Export Plug-In . SVG Version: 6.00 Build 0)  -->
<svg version="1.1" id="Layer_1" xmlns="http://www.w3.org/2000/svg" xmlns:xlink="http://www.w3.org/1999/xlink" x="0px" y="0px"
	 viewBox="0 0 100 100" style="enable-background:new 0 0 100 100;" xml:space="preserve">
<style type="text/css">
	.st0{fill-rule:evenodd;clip-rule:evenodd;fill:#8F98A3;}
	.st1{fill-rule:evenodd;clip-rule:evenodd;fill:#FFFFFF;}
</style>
<g>
	<circle class="st0" cx="50" cy="50" r="50"/>
	<g transform="translate(26 24)">
		<path class="st1" d="M37,35.6H13.6v2.7c-0.5,2.7-2.7,4.8-5.4,4.8c-3,0-5.5-2.6-5.5-5.9c0-2,0.9-3.8,2.4-4.8L3.5,30
			C1.4,31.6,0,34.2,0,37.2C0,42.1,3.7,46,8.2,46c4.1,0,7.5-3.2,8.1-7.3h20.5c0.5,0.9,1.4,1.5,2.4,1.5c1.5,0,2.7-1.3,2.7-2.9
			c0-1.6-1.2-2.9-2.7-2.9C38.3,34.3,37.5,34.8,37,35.6z"/>
		<path class="st1" d="M6.2,35c0-0.1,0.1-0.2,0.2-0.4c0.5-0.9,1.4-1.4,2.3-1.4l10.1-18.3c-3-2.6-3.8-7.1-1.8-10.7
			c2.2-4,7.2-5.4,11-3.1c2.4,1.4,3.8,3.9,4,6.6l-2.7,0.2c-0.1-1.8-1.1-3.4-2.7-4.4c-2.6-1.6-5.9-0.6-7.3,2.1c-1.5,2.6-0.6,6,1.8,7.6
			l1.5,0.9L11.2,34.8c0.3,0.7,0.4,1.6,0.1,2.3C10.8,38.2,9.8,39,8.7,39C7.2,39,6,37.7,6,36.2C6,35.8,6.1,35.4,6.2,35z"/>
		<path class="st1" d="M24.5,11.6l11.3,20.8l1.4-0.8l0,0c0,0,0,0,0,0c2.6-1.6,5.9-0.7,7.3,2c1.5,2.7,0.6,6.2-2,7.7
			c-1.6,1-3.4,1-5,0.2l-1.1,2.6c2.3,1.1,5.1,1.1,7.5-0.4c3.9-2.4,5.2-7.5,3-11.6c-2-3.7-6.2-5.1-9.8-3.6L27,10.2
			c0.4-0.8,0.5-1.9,0-2.8c-0.7-1.3-2.4-1.8-3.7-1s-1.7,2.5-1,3.9C22.8,11.1,23.7,11.6,24.5,11.6z"/>
	</g>
</g>
</svg>
