<?xml version="1.0" encoding="utf-8"?>
<svg version="1.1" id="Layer_1" xmlns="http://www.w3.org/2000/svg" xmlns:xlink="http://www.w3.org/1999/xlink" x="0px" y="0px"
   viewBox="0 0 48 44" style="enable-background:new 0 0 48 44;" xml:space="preserve">
<style type="text/css">
  .st0{fill-rule:evenodd;clip-rule:evenodd;}
</style>
<g>
  <path class="st0" d="M37,34.2H13.6v2.5c-0.5,2.6-2.7,4.5-5.4,4.5c-3,0-5.5-2.5-5.5-5.5c0-1.9,0.9-3.5,2.4-4.5L3.5,29
    C1.4,30.5,0,33,0,35.8C0,40.3,3.7,44,8.2,44c4.1,0,7.5-3,8.1-6.9h20.5c0.5,0.8,1.4,1.4,2.4,1.4c1.5,0,2.7-1.2,2.7-2.7
    c0-1.5-1.2-2.7-2.7-2.7C38.3,33,37.5,33.5,37,34.2z"/>
  <path class="st0" d="M6.2,34.1c0-0.1,0.1-0.2,0.2-0.3c0.5-0.9,1.4-1.4,2.3-1.4l10.1-17.9C15.9,12,15,7.6,17,4.1
    c2.2-3.9,7.2-5.3,11-3c2.4,1.4,3.8,3.8,4,6.4l-2.7,0.2c-0.1-1.7-1.1-3.3-2.7-4.3c-2.6-1.5-5.9-0.6-7.3,2c-1.5,2.6-0.6,5.8,1.8,7.4
    l1.5,0.9L11.2,34c0.3,0.7,0.4,1.5,0.1,2.3c-0.4,1-1.4,1.8-2.5,1.8C7.2,38,6,36.8,6,35.3C6,34.9,6.1,34.5,6.2,34.1z"/>
  <path class="st0" d="M24.5,10.5l11.3,20.3l1.4-0.8l0,0c0,0,0,0,0,0c2.6-1.5,5.9-0.6,7.3,2s0.6,6-2,7.5c-1.6,0.9-3.4,1-5,0.2
    l-1.1,2.5c2.3,1.1,5.1,1.1,7.5-0.4c3.9-2.3,5.2-7.4,3-11.3c-2-3.6-6.2-5-9.8-3.5L27,9.1c0.4-0.8,0.5-1.8,0-2.7
    c-0.7-1.3-2.4-1.8-3.7-1s-1.7,2.5-1,3.8C22.8,10,23.7,10.5,24.5,10.5z"/>
</g>
</svg>
