<svg width="48" height="44" viewBox="0 0 48 44">
  <g fill-rule="evenodd">
    <path d="M36.9910789,34.2110741 L13.6418772,34.2110741 L13.6418772,36.7231838 C13.1882976,39.2983115 10.9402052,41.2547265 8.23520195,41.2547265 C5.20308429,41.2547265 2.74506731,38.796525 2.74506731,35.7641796 C2.74506731,33.8930164 3.68101353,32.2404716 5.11025579,31.2492286 L3.53591399,29 C1.39873928,30.4877733 0,32.9626177 0,35.7641796 C0,40.3126976 3.68702549,44 8.23520195,44 C12.3139853,44 15.7001951,41.0345171 16.3556964,37.141839 L36.8800188,37.141839 C37.3553646,37.9596325 38.2409447,38.5094531 39.2549327,38.5094531 C40.7709915,38.5094531 42,37.2803523 42,35.7641796 C42,34.248007 40.7709915,33.0189062 39.2549327,33.0189062 C38.3152891,33.0189062 37.4859142,33.4910581 36.9910789,34.2110741 Z"/>
    <path d="M6.245634,34.1181184 C6.29221503,34.0007133 6.34734324,33.885193 6.41123376,33.7723773 C6.90658464,32.8977038 7.80339984,32.4067663 8.72696597,32.4020635 L18.8372631,14.5496488 C15.8580818,12.0433659 15.0019452,7.63690485 16.9987341,4.11104381 C19.2243444,0.181137788 24.1514115,-1.16660473 28.0036465,1.10077662 C30.3687196,2.49283145 31.7787983,4.92390543 32,7.50292711 L29.3247151,7.74204041 C29.1775973,6.0222262 28.237471,4.40094713 26.6603719,3.47268472 C24.0922152,1.96109715 20.8075038,2.85959215 19.3237636,5.4795295 C17.8707095,8.04528243 18.6837653,11.3105055 21.1301063,12.8641958 L22.6084877,13.7343541 L11.1573076,33.9544537 C11.482711,34.6473109 11.5178047,35.4692736 11.2076185,36.2109102 C10.8291386,37.2553279 9.84320555,38 8.68654925,38 C7.20280908,38 6,36.7746162 6,35.2630286 C6,34.8542731 6.08795437,34.4664459 6.245634,34.1181184 Z"/>
    <path d="M24.5286726,10.5021701 L35.8785377,30.7702131 L37.230203,29.9656334 L37.253124,30.0065646 C37.2642804,29.999816 37.2754688,29.9931021 37.2866892,29.9864232 C39.8596453,28.4548694 43.1376313,29.3422607 44.6082759,31.968467 C46.0789205,34.5946734 45.1853205,37.9652039 42.6123644,39.4967577 C41.026193,40.4409272 39.1720784,40.4657878 37.638643,39.7306871 L36.4937584,42.2302868 C38.7918605,43.3277693 41.5681651,43.2884294 43.9437831,41.8743413 C47.8032173,39.5770107 49.1436174,34.5212149 46.9376505,30.5819054 C44.9458985,27.0251304 40.7440866,25.5946196 37.1060711,27.04129 L27.0352795,9.05735493 C27.4690832,8.24177461 27.4934864,7.22451086 27.0128657,6.36624147 C26.2775434,5.05313832 24.6385504,4.60944268 23.3520723,5.37521956 C22.0655942,6.1409964 21.6187942,7.82626168 22.3541165,9.13936488 C22.8214491,9.97390493 23.6537935,10.4572728 24.5286726,10.5021701 Z"/>
  </g>
</svg>
